<svg xmlns="http://www.w3.org/2000/svg" version="1.1" xmlns:xlink="http://www.w3.org/1999/xlink" xmlns:svgjs="http://svgjs.dev/svgjs" width="1000" height="1000" viewBox="0 0 1000 1000"><rect width="1000" height="1000" fill="#000000"></rect><g transform="matrix(0.7,0,0,0.7,150.00015421875003,106.25)"><svg viewBox="0 0 320 360" data-background-color="#ffffff" preserveAspectRatio="xMidYMid meet" height="1125" width="1000" xmlns="http://www.w3.org/2000/svg" xmlns:xlink="http://www.w3.org/1999/xlink"><g id="tight-bounds" transform="matrix(1,0,0,1,-0.000023499999997511622,0)"><svg viewBox="0 0 320 360" height="360" width="320"><g><svg></svg></g><g><svg viewBox="0 0 320 360" height="360" width="320"><g><path transform="translate(-74.99272,-51.79039) scale(4.65793,4.65793)" d="M20.6 59.9l0.8 1-0.4-1.3c-0.1-0.6-0.8 0.1-0.4 0.3M21.5 59.3c0.3 0.5 0.6 1 0.6 1.5 0 0.7 0.6 1 1.1 1.2-0.7-0.8-1.1-3-1.7-2.7M59.9 16.9c1.7 0 3.3-0.2 5.1 0.2 4.4 1.1 8.1 3.3 10.6 6.4l7 11.2c0.3 2.8 0.9 5.9 0.8 9.3 0.7 0 0.6-1 1.4-1.2-0.8 2-1.2 4.5-1.4 7.4-0.5-1.6 0-4 0.1-5.3-0.7 1.1-1.1 0.3-1.1-0.2 0.1-0.8-0.3-0.7-0.6-1-1.1-1-1.8-2.1-2.6-3.8 0.5-1.3 0.6-3.2-1-4.2-0.5-0.3-1.1-0.8-1.4-1.6-0.4-1.1-1.1-2.4-0.9-4.1 0.1-0.5-1.5 1.1-2.4 0.4-3.9-2.7-7.8-5.8-12.5-8.4-2.5 0-4.3-0.9-5.2-2-0.8-1-0.2-2.3 1-2.4 0.7 0 1.5-0.2 2.1 0.2 0.1-0.4 0.5-0.9 1-0.9M50 14.6l0.2 0.1c1 0.2 1.5 1.6 2.6 1.1 0 0.7 0.1 1.4-0.1 1.9-0.3 0.8-1.2 0.8-1.9 0.8-6.7-0.4-10.6 2.4-14.7 4.8-1.1 0.7-2.3 1.2-3.2 2.1-4.3 4-9 7.7-10.1 15.1l-0.9 8.2c-0.1 0.9-1.1 1.8-0.9 2.9l0.7 4.9c-0.7-0.7-1.1 0.2-0.9 0.6 0.1 0.3 0.5 1.3 1.1 0.4 0.8 1.5 1.6 4.4 2.7 5.7 3.4 4 7.8 7.6 11.4 11.2 0.9-0.2 1.6-0.2 1.8-0.8 0.3 0.6-0.3 1.2-0.8 1.3 1.6 1 3.4 1.9 5.8 2.1 3.1 0.2 6 0.7 8.7 1.4 1.4-0.4 2.8-0.6 4.3-0.7 0.5 0 0.8-0.8 1.4-1l0.1-1c0.6 0.9 0.5-0.3 0.1-0.9 0.7 0.6 0.9 1.1 1.2 1.5 0-0.3 0.8-1.4 0.8-0.1l0.2-1.3c0.3-0.2 0.4 1.1 0.7 0.2 0.3-0.9 0.9-0.2 1.5-0.5-0.2 0.4-0.1 1.2 0.6 0.7l0.8-0.7c0.5 1.2 1.3 0.7 1.7 0.5 4.4-2.8 8.8-6.1 13-9.4l-0.1 1.3 0.5-1.6c0.5 0.5 0.9 0.1 1.1-0.2 0.6-1 1.4-2 2.7-2.9-1.6 4.3-3.5 7.7-5.9 10.5l-1 1.2c0 0.7-0.2 1.6-1 1.7-0.4 0.1-1.2-0.2-1.8 0.4-0.3 0.4 0.7 1.2-0.1 0.6-0.7-0.5-1.4 0-2.2 0.2-0.6 0.2 0.4 0.8 0.6 1.2 0.2 0.4 0.4 0.8 0.3 1.3l-1.1-1.2c-1.3 0.7-2.1 2-3.2 3-0.5 0.4-0.3 1.1-0.3 1.7-0.7 0-1.5-0.2-1.9 0.2-0.3 0.4-0.2 1-0.2 1.6-1-0.1-1.1-1.6-2-1.3-0.9 0.2-1.9 0.3-2.7 0.8 0.6 1.2-1 0.5-0.8 0.7-1.5-0.9-2.8-1.6-4.4-1-3.4-1.1-7.6-0.6-10.7-0.2 0-0.5 0.1-1-0.1-1.1-0.2 0.5-0.8 0.3-0.7 0.3-1.9-1.3-3.8-2.1-5.8-3.2-1.8 0.2-3.5-0.7-4-1.2-1.4-1.3-3-0.6-4.3-0.9-2.8-0.7-3.8-3.6-4.1-5.6-0.2-1-1-1.4-1.3-1.3-1.3-4.2-3.3-8-4.9-11.9-0.4-1-0.3-2-0.3-3.1 0.5 0.2 1 0.1 0.9-0.6-0.5-3.3-1.7-5.8-3-8.2 0.7-3.4 0.8-7.4 2.4-10.4 1.4-2.7 4-4.1 5.8-6.4 0.6-0.8 0.6-1.9 1.2-2.6 2-2 4-4.1 6.2-5.9 1-0.8 2.2 0 3.7-0.3 0.5-1.8 2.5-3.4 4.4-2.9 0.8 0.2 2.4-1.9 2.9-2.1 0.8-0.3 0.4 0.8 0.4 1.5 1.9-1.5 4.5-2.3 6.9-3.2" fill="#ffffff" fill-rule="nonzero" stroke="none" stroke-width="1" stroke-linecap="butt" stroke-linejoin="miter" stroke-miterlimit="10" stroke-dasharray="" stroke-dashoffset="0" font-family="none" font-weight="none" font-size="none" text-anchor="none" style="mix-blend-mode: normal" data-fill-palette-color="tertiary"></path></g><g transform="matrix(1,0,0,1,64,140.0698885762799)"><svg viewBox="0 0 192 79.86022284744018" height="79.86022284744018" width="192"><g><svg viewBox="0 0 192 79.86022284744018" height="79.86022284744018" width="192"><g><svg viewBox="0 0 192 79.86022284744018" height="79.86022284744018" width="192"><g transform="matrix(1,0,0,1,0,59.4352164157448)"><svg viewBox="0 0 192 20.425006431695394" height="20.425006431695394" width="192"><g id="textblocktransform"><svg viewBox="0 0 192 20.425006431695394" height="20.425006431695394" width="192" id="textblock"><g><svg viewBox="0 0 192 20.425006431695394" height="20.425006431695394" width="192"><g transform="matrix(1,0,0,1,0,0)"><svg width="192" viewBox="0 -40.3 383.68 41.349999999999994" height="20.425006431695394" data-palette-color="url(#05898d78-b333-4d2c-b6a1-3fda7d3fbd68)"><g class="wordmark-text-0" data-fill-palette-color="primary" id="text-0"><path d="M247.94-15L247.94-7.9 249.29-5.75 240.09-0.1Q237.99 0.55 236.01 0.78 234.04 1 231.79 1L231.79 1Q226.24 1 221.96-1.55 217.69-4.1 215.31-8.58 212.94-13.05 212.94-18.75L212.94-18.75Q212.94-24.6 216.49-29.58 220.04-34.55 225.34-37.43 230.64-40.3 235.44-40.3L235.44-40.3Q238.29-40.3 242.09-39.55 245.89-38.8 247.64-37.95L247.64-37.95 247.64-28.25 245.74-28.25Q240.74-36.1 232.54-36.1L232.54-36.1Q228.94-36.1 225.99-34.18 223.04-32.25 221.36-28.83 219.69-25.4 219.69-21.15L219.69-21.15Q219.69-16.25 221.31-12.2 222.94-8.15 226.29-5.7 229.64-3.25 234.59-3.25L234.59-3.25Q236.79-3.25 238.24-3.4 239.69-3.55 241.69-4.35L241.69-4.35 241.69-16.15 233.99-18.3 234.99-20.3 252.69-20.3 252.69-18.75 247.94-15ZM298.34-37.75L293.59-34.05 293.59-15.5Q293.59-10.25 291.06-6.5 288.54-2.75 284.84-0.88 281.14 1 277.59 1L277.59 1Q273.14 1 269.61-0.98 266.09-2.95 264.11-6.43 262.14-9.9 262.14-14.25L262.14-14.25 262.14-35.55 256.94-37.3 257.94-39.3 273.14-39.3 273.14-37.75 268.39-34.05 268.39-16.65Q268.39-10.3 271.51-6.75 274.64-3.2 280.99-3.2L280.99-3.2Q283.34-3.2 285.61-4.73 287.89-6.25 289.36-9.2 290.83-12.15 290.83-16.15L290.83-16.15 290.83-34.7 285.64-37.3 286.64-39.3 298.34-39.3 298.34-37.75ZM340.33-1.9L339.33 0.1 330.03 0.1 319.03-17.65 316.68-19.35 317.43-20.85 320.23-20.85Q323.63-20.85 325.61-22.58 327.58-24.3 327.58-27.3L327.58-27.3Q327.58-31.25 325.38-33.88 323.18-36.5 318.98-36.5L318.98-36.5Q316.18-36.5 313.83-34.85L313.83-34.85 313.83-3.7 319.08-1.9 318.08 0.1 302.88 0.1 302.88-1.45 307.58-5.15 307.58-35.55 302.38-37.25 303.38-39.25 309.18-39.25Q313.73-39.25 318.13-39.55L318.13-39.55Q321.33-39.75 322.88-39.75L322.88-39.75Q326.23-39.75 328.86-38.4 331.48-37.05 332.91-34.75 334.33-32.45 334.33-29.7L334.33-29.7Q334.33-27.2 332.78-24.93 331.23-22.65 328.71-20.98 326.18-19.3 323.38-18.45L323.38-18.45 326.63-17.35 334.38-4.85 340.33-1.9ZM383.68-37.75L378.93-34.05 378.93-15.5Q378.93-10.25 376.41-6.5 373.88-2.75 370.18-0.88 366.48 1 362.93 1L362.93 1Q358.48 1 354.96-0.98 351.43-2.95 349.46-6.43 347.48-9.9 347.48-14.25L347.48-14.25 347.48-35.55 342.28-37.3 343.28-39.3 358.48-39.3 358.48-37.75 353.73-34.05 353.73-16.65Q353.73-10.3 356.86-6.75 359.98-3.2 366.33-3.2L366.33-3.2Q368.68-3.2 370.96-4.73 373.23-6.25 374.71-9.2 376.18-12.15 376.18-16.15L376.18-16.15 376.18-34.7 370.98-37.3 371.98-39.3 383.68-39.3 383.68-37.75Z" fill="#ffffff" data-fill-palette-color="secondary"></path></g></svg></g></svg></g></svg></g></svg></g><g transform="matrix(1,0,0,1,62.45952523108557,0)"><svg viewBox="0 0 67.08094953782886 56.45471777720608" height="56.45471777720608" width="67.08094953782886"><g><svg xmlns="http://www.w3.org/2000/svg" xmlns:xlink="http://www.w3.org/1999/xlink" version="1.1" x="0" y="0" viewBox="2 9 96.699 81.381" enable-background="new 0 0 100 100" xml:space="preserve" height="56.45471777720608" width="67.08094953782886" class="icon-icon-0" data-fill-palette-color="accent" id="icon-0"></svg></g></svg></g><g></g></svg></g></svg></g></svg></g></svg></g><defs></defs><mask id="dc5989d9-86b6-49b9-970b-85e79597f85c"><g id="SvgjsG1058"><svg viewBox="0 0 320 360" height="360" width="320"><g><svg></svg></g><g><svg viewBox="0 0 320 360" height="360" width="320"><g></g><g transform="matrix(1,0,0,1,64,140.0698885762799)"><svg viewBox="0 0 192 79.86022284744018" height="79.86022284744018" width="192"><g><svg viewBox="0 0 192 79.86022284744018" height="79.86022284744018" width="192"><g><svg viewBox="0 0 192 79.86022284744018" height="79.86022284744018" width="192"><g transform="matrix(1,0,0,1,0,59.4352164157448)"><svg viewBox="0 0 192 20.425006431695394" height="20.425006431695394" width="192"><g id="SvgjsG1057"><svg viewBox="0 0 192 20.425006431695394" height="20.425006431695394" width="192" id="SvgjsSvg1056"><g><svg viewBox="0 0 192 20.425006431695394" height="20.425006431695394" width="192"><g transform="matrix(1,0,0,1,0,0)"><svg width="192" viewBox="0 -40.3 383.68 41.349999999999994" height="20.425006431695394" data-palette-color="url(#05898d78-b333-4d2c-b6a1-3fda7d3fbd68)"><g class="wordmark-text-0" data-fill-palette-color="primary" id="SvgjsG1055"><path d="M43.65-37.75L38.95-34.05 24.8-1.6 19.6 0.95 5-34.25 0-37.3 1-39.3 16.2-39.3 16.2-37.75 11.5-34.1 23.55-5.05 36.25-34.3 27.45-37.3 28.45-39.3 43.65-39.3 43.65-37.75ZM79.35 0.9L76.65 0 46.65 0 46.65-1.55 51.35-5.25 51.35-35.55 46.15-37.3 47.15-39.3 76.15-39.3 78.85-40.2 78.85-28.7 77.35-28.2 71.4-37.05 57.6-37.05 57.6-21.2 65.45-21.2 69.1-27.6 70.65-27.6 70.65-12.4 68.65-11.4 65.5-18.95 57.6-18.95 57.6-2.25 71.2-2.25 77.85-12.1 79.35-11.6 79.35 0.9ZM124.85-1.9L123.85 0.1 114.55 0.1 103.55-17.65 101.2-19.35 101.95-20.85 104.75-20.85Q108.15-20.85 110.12-22.58 112.1-24.3 112.1-27.3L112.1-27.3Q112.1-31.25 109.9-33.88 107.7-36.5 103.5-36.5L103.5-36.5Q100.7-36.5 98.35-34.85L98.35-34.85 98.35-3.7 103.6-1.9 102.6 0.1 87.4 0.1 87.4-1.45 92.1-5.15 92.1-35.55 86.9-37.25 87.9-39.25 93.7-39.25Q98.25-39.25 102.65-39.55L102.65-39.55Q105.85-39.75 107.4-39.75L107.4-39.75Q110.75-39.75 113.37-38.4 116-37.05 117.42-34.75 118.85-32.45 118.85-29.7L118.85-29.7Q118.85-27.2 117.3-24.93 115.75-22.65 113.22-20.98 110.7-19.3 107.9-18.45L107.9-18.45 111.15-17.35 118.9-4.85 124.85-1.9ZM149.89-8.85Q149.89-10.4 148.64-11.75 147.39-13.1 145.52-14.23 143.64-15.35 140.44-17L140.44-17Q136.64-19 134.34-20.43 132.04-21.85 130.42-23.8 128.79-25.75 128.79-28.1L128.79-28.1Q128.79-30.6 130.89-33.48 132.99-36.35 136.02-38.33 139.04-40.3 141.59-40.3L141.59-40.3Q144.69-40.3 148.79-39.55 152.89-38.8 154.79-37.95L154.79-37.95 154.79-28.25 152.89-28.25Q150.44-32.3 147.52-34.55 144.59-36.8 141.39-36.8L141.39-36.8Q138.54-36.8 136.87-35.02 135.19-33.25 135.19-30.4L135.19-30.4Q135.19-28.75 136.47-27.33 137.74-25.9 139.62-24.8 141.49-23.7 144.84-21.95L144.84-21.95Q148.54-20.1 150.84-18.68 153.14-17.25 154.72-15.38 156.29-13.5 156.29-11.15L156.29-11.15Q156.29-8.65 154.04-5.78 151.79-2.9 148.57-0.93 145.34 1.05 142.69 1.05L142.69 1.05Q139.44 1.05 134.97 0.3 130.49-0.45 128.54-1.3L128.54-1.3 128.54-11 130.44-11Q132.99-6.95 136.24-4.7 139.49-2.45 142.94-2.45L142.94-2.45Q144.99-2.45 146.59-3.35 148.19-4.25 149.04-5.73 149.89-7.2 149.89-8.85L149.89-8.85ZM195.49 0.9L192.79 0 162.79 0 162.79-1.55 167.49-5.25 167.49-35.55 162.29-37.3 163.29-39.3 192.29-39.3 194.99-40.2 194.99-28.7 193.49-28.2 187.54-37.05 173.74-37.05 173.74-21.2 181.59-21.2 185.24-27.6 186.79-27.6 186.79-12.4 184.79-11.4 181.64-18.95 173.74-18.95 173.74-2.25 187.34-2.25 193.99-12.1 195.49-11.6 195.49 0.9Z" fill="white"></path></g></svg></g></svg></g></svg></g></svg></g><g transform="matrix(1,0,0,1,62.45952523108557,0)"><svg viewBox="0 0 67.08094953782886 56.45471777720608" height="56.45471777720608" width="67.08094953782886"><g><svg xmlns="http://www.w3.org/2000/svg" xmlns:xlink="http://www.w3.org/1999/xlink" version="1.1" x="0" y="0" viewBox="2 9 96.699 81.381" enable-background="new 0 0 100 100" xml:space="preserve" height="56.45471777720608" width="67.08094953782886" class="icon-icon-0" data-fill-palette-color="accent" id="SvgjsSvg1054"></svg></g></svg></g><g></g></svg></g></svg></g></svg></g></svg></g><defs><mask></mask></defs></svg></g></mask><linearGradient x1="0.054" x2="0.941" y1="0.5" y2="0.5" id="05898d78-b333-4d2c-b6a1-3fda7d3fbd68"><stop stop-color="#26282a" offset="0"></stop><stop stop-color="#9e9fa0" offset="0.498"></stop><stop stop-color="#26282a" offset="1"></stop></linearGradient><rect width="320.000047" height="360" fill="#ffffff" mask="url(#dc5989d9-86b6-49b9-970b-85e79597f85c)" data-fill-palette-color="primary"></rect><mask id="f8c2f526-2e5c-4aa5-b434-9a3334d83311"><g id="SvgjsG1068"><svg viewBox="0 0 320 360" height="360" width="320"><g><svg></svg></g><g><svg viewBox="0 0 320 360" height="360" width="320"><g></g><g transform="matrix(1,0,0,1,64,140.0698885762799)"><svg viewBox="0 0 192 79.86022284744018" height="79.86022284744018" width="192"><g><svg viewBox="0 0 192 79.86022284744018" height="79.86022284744018" width="192"><g><svg viewBox="0 0 192 79.86022284744018" height="79.86022284744018" width="192"><g transform="matrix(1,0,0,1,0,59.4352164157448)"><svg viewBox="0 0 192 20.425006431695394" height="20.425006431695394" width="192"><g id="SvgjsG1067"><svg viewBox="0 0 192 20.425006431695394" height="20.425006431695394" width="192" id="SvgjsSvg1066"><g><svg viewBox="0 0 192 20.425006431695394" height="20.425006431695394" width="192"><g transform="matrix(1,0,0,1,0,0)"><svg width="192" viewBox="0 -40.3 383.68 41.349999999999994" height="20.425006431695394" data-palette-color="url(#05898d78-b333-4d2c-b6a1-3fda7d3fbd68)"><g class="wordmark-text-0" data-fill-palette-color="primary" id="SvgjsG1065"></g></svg></g></svg></g></svg></g></svg></g><g transform="matrix(1,0,0,1,62.45952523108557,0)"><svg viewBox="0 0 67.08094953782886 56.45471777720608" height="56.45471777720608" width="67.08094953782886"><g><svg xmlns="http://www.w3.org/2000/svg" xmlns:xlink="http://www.w3.org/1999/xlink" version="1.1" x="0" y="0" viewBox="2 9 96.699 81.381" enable-background="new 0 0 100 100" xml:space="preserve" height="56.45471777720608" width="67.08094953782886" class="icon-icon-0" data-fill-palette-color="accent" id="SvgjsSvg1064"><path d="M98.699 69.11l-1.867-1.352c-0.031-0.023-3.702-2.749-3.886-6.214-0.222-4.14 1.296-7.032 1.296-7.032-2.543 2.154-3.782 4.554-3.68 7.128 0.112 2.853 1.884 5.213 3.259 6.619L54.004 81.91h-0.007l-3.647-4.307-5.928 2.646 3.131 3.877-6.31 2.161c-0.215 0.032-0.429 0.056-0.635 0.056-2.4 0-4.577-2.717-4.577-5.697 0-2.964 2.034-5.919 4.013-7.063l56.097-20.746L54.728 9 6.107 25.463C3.708 26.377 2 28.992 2 32.011c0 1.581 0.477 3.115 1.335 4.346l0.445-0.293-0.429 0.309 2.074 3.258c-0.334-6.325 4.601-7.962 7.048-9.042l2.384 2.98c-1.812 0.794-7.151 2.496-6.857 8.129l0.016 0.182c0 1.176 0.35 2.313 0.978 3.21l-0.008 0.007 16.527 25.339c-0.326-3.202 3.154-7.755 8.367-8.859l2.272 2.845c-5.363 2.058-8.145 5.165-7.612 9.025l0.016 0.176c0 1.177 0.342 2.32 0.978 3.21L29.5 76.857l5.833 9.018 0.04-0.023c1.303 1.74 3.203 2.876 5.237 2.876 0.39 0 0.787-0.039 1.167-0.119l7.358-2.519 3.464 4.291 1.589-3.513H58.2l-2.551-3.011L98.699 69.11zM35.618 41.117l-2.384-2.979 8.661-3.266-6.476-8.455 5.761-1.986 6.572 8.231 8.128-3.067 2.979 2.781-8.716 3.281 13.086 16.384-6.356 2.384L44.207 37.89 35.618 41.117z" fill="white"></path></svg></g></svg></g><g></g></svg></g></svg></g></svg></g></svg></g><defs><mask></mask></defs><mask><g id="SvgjsG1063"><svg viewBox="0 0 320 360" height="360" width="320"><g><svg></svg></g><g><svg viewBox="0 0 320 360" height="360" width="320"><g></g><g transform="matrix(1,0,0,1,64,140.0698885762799)"><svg viewBox="0 0 192 79.86022284744018" height="79.86022284744018" width="192"><g><svg viewBox="0 0 192 79.86022284744018" height="79.86022284744018" width="192"><g><svg viewBox="0 0 192 79.86022284744018" height="79.86022284744018" width="192"><g transform="matrix(1,0,0,1,0,59.4352164157448)"><svg viewBox="0 0 192 20.425006431695394" height="20.425006431695394" width="192"><g id="SvgjsG1062"><svg viewBox="0 0 192 20.425006431695394" height="20.425006431695394" width="192" id="SvgjsSvg1061"><g><svg viewBox="0 0 192 20.425006431695394" height="20.425006431695394" width="192"><g transform="matrix(1,0,0,1,0,0)"><svg width="192" viewBox="0 -40.3 383.68 41.349999999999994" height="20.425006431695394" data-palette-color="url(#05898d78-b333-4d2c-b6a1-3fda7d3fbd68)"><g class="wordmark-text-0" data-fill-palette-color="primary" id="SvgjsG1060"></g></svg></g></svg></g></svg></g></svg></g><g transform="matrix(1,0,0,1,62.45952523108557,0)"><svg viewBox="0 0 67.08094953782886 56.45471777720608" height="56.45471777720608" width="67.08094953782886"><g><svg xmlns="http://www.w3.org/2000/svg" xmlns:xlink="http://www.w3.org/1999/xlink" version="1.1" x="0" y="0" viewBox="2 9 96.699 81.381" enable-background="new 0 0 100 100" xml:space="preserve" height="56.45471777720608" width="67.08094953782886" class="icon-icon-0" data-fill-palette-color="accent" id="SvgjsSvg1059"></svg></g></svg></g><g></g></svg></g></svg></g></svg></g></svg></g><defs><mask></mask></defs></svg></g></mask></svg></g></mask><linearGradient x1="0" x2="1" y1="0.5" y2="0.5" id="e0874a6b-19d9-4925-9115-84ed3d7af899"><stop stop-color="#fff72e" offset="0"></stop><stop stop-color="#deae29" offset="1"></stop></linearGradient><rect width="320.000094" height="360" fill="#ffffff" mask="url(#f8c2f526-2e5c-4aa5-b434-9a3334d83311)" data-fill-palette-color="accent"></rect></svg><rect width="320" height="360" fill="none" stroke="none" visibility="hidden"></rect></g></svg></g></svg>